# xmcd
#
# Track frame offsets:
#	150
#	11185
#	25528
#	43814
#	56714
#	75506
#	90190
#	103690
#	114165
#	129436
#	151835
#	166315
#	187381
#
# Disc length: 2699 seconds
#
# Revision: 4
# Processed by: cddbd v1.5.2PL0 Copyright (c) Steve Scherf et al.
# Submitted via: audiograbber 1.83.01
#
DISCID=980a890d
DTITLE=Rick Shea and Patty Booker - Our Shangri-La
DYEAR=2003
DGENRE=Honkytonk
TTITLE0=When Will I Ever Learn
TTITLE1=I'm No Good Without You
TTITLE2=Summer Wine
TTITLE3=Just A Matter Of Time
TTITLE4=I Know Wht's Wrong (But I Just Can't Get It Right)
TTITLE5=Our Shangri-La
TTITLE6=Fewer Things All The Time
TTITLE7=You Take Me For Granted
TTITLE8=The Bull And The Beaver
TTITLE9=You
TTITLE10=Baby That Ain't True
TTITLE11=Fat Daddy
TTITLE12=The House That We Once Lived In
EXTD=
EXTT0=
EXTT1=
EXTT2=
EXTT3=
EXTT4=
EXTT5=
EXTT6=
EXTT7=
EXTT8=
EXTT9=
EXTT10=
EXTT11=
EXTT12=
PLAYORDER=
